<?xml version="1.0" encoding="UTF-8"?>
<svg xmlns="http://www.w3.org/2000/svg" viewBox="0 0 37.72 37.72">
  <path fill="#ffffff" d="M13.96,12.57l-2.61-1.73-1.99,1.99,1.73,2.61c-.41.68-.72,1.43-.92,2.23l-3.07.62v2.82l3.07.62c.2.79.51,1.54.92,2.23l-1.73,2.61 1.99,1.99 2.61-1.73c.68.41,1.43.72,2.22.92l.62,3.07h2.82l.62-3.07c.79-.2,1.54-.51,2.23-.92l2.61,1.73 1.99-1.99-1.73-2.61c.41-.68.72-1.43.92-2.22l3.07-.62v-2.82l-3.07-.62c-.17-.68-.42-1.33-.75-1.93l-1.66-1-2.44,1.47c.2.18.37.37.54.59.51.65.85,1.44.96,2.31.03.2.04.39.04.6s-.01.4-.04.59c-.11.86-.45,1.66-.96,2.31-.24.32-.53.6-.84.84-.66.51-1.45.85-2.31.96-.2.03-.4.04-.59.04s-.4-.01-.59-.04c-.87-.11-1.66-.45-2.31-.96-.31-.24-.6-.52-.84-.84-.51-.65-.85-1.45-.96-2.31-.03-.19-.04-.39-.04-.59s.01-.4.04-.6c.11-.86.45-1.66.96-2.31.24-.31.52-.6.84-.84.28-.22.59-.41.92-.56v-3.75c-.79.2-1.59.52-2.27.93z"/>
  <polygon fill="#ffffff" points="20.68 11.77 17.59 13.63 17.59 16.93 20.17 15.37 23.86 13.14 26.01 14.44 30.13 16.93 30.13 13.63 23.86 9.85 20.68 11.77"/>
  <polygon fill="#ffffff" points="23.86 4.73 17.59 8.52 17.59 11.82 19.99 10.37 23.86 8.04 30.13 11.82 30.13 8.52 23.86 4.73"/>
</svg>
