<?xml version="1.0" encoding="UTF-8"?>
<svg id="Modo_de_isolamento" xmlns="http://www.w3.org/2000/svg" viewBox="0 0 231.93 220.98">
  <path fill="#ffffff" d="M193.43,78.26l-18.01-18.02-14.72-14.72c-2.42-2.42-6.35-2.42-8.77,0s-2.42,6.35,0,8.77l12.9,12.9v23.18
    c0,1.64.66,3.23,1.82,4.39l20.53,20.53c.62,.62,.97,1.46,.97,2.33s-.34,1.71-.97,2.33l-20.53,20.53c-1.17,1.17-1.82,2.75-1.82,4.39v23.18l-12.9,12.9
    c-2.42,2.42-2.42,6.35,0,8.77s6.35,2.42,8.77,0l14.72-14.72,18.01-18.01c5.44-5.44,8.43-12.67,8.43-20.37v-19.63
    c0-7.7-2.99-14.93-8.43-20.37Z"/>
  <path fill="#ffffff" d="M84.27,109.5c0-13.9,11.31-25.21,25.21-25.21s25.21,11.31,25.21,25.21-11.31,25.21-25.21,25.21-25.21-11.31-25.21-25.21Zm-21.68,0
    c0,25.89,21,46.89,46.89,46.89s46.89-21,46.89-46.89-21-46.89-46.89-46.89-46.89,21-46.89,46.89Z"/>
  <path fill="#ffffff" d="M56.22,209.43l18.01-18.01,14.72-14.72c2.42-2.42,2.42-6.35,0-8.77s-6.35-2.42-8.77,0l-12.9,12.9v-23.18
    c0-1.64-.66-3.23-1.82-4.39l-20.53-20.53c-.62-.62-.97-1.46-.97-2.33s.34-1.71,.97-2.33l20.53-20.53c1.17-1.17,1.82-2.75,1.82-4.39V79.81
    l12.9-12.9c2.42-2.42,2.42-6.35,0-8.77s-6.35-2.42-8.77,0l-14.72,14.72-18.01,18.01c-5.44,5.44-8.43,12.67-8.43,20.37v19.63
    c0,7.7,2.99,14.93,8.43,20.37l18.01,18.01v0Z"/>
</svg>
