<?xml version="1.0" encoding="UTF-8"?>
<svg xmlns="http://www.w3.org/2000/svg" viewBox="0 0 512 512">
  <path fill="#ffffff" d="M487.4 315.7l-64.3-37.1c1.5-9.3 2.3-18.9 2.3-28.6s-.8-19.3-2.3-28.6l64.3-37.1c15.1-8.7 20.2-28 11.4-43.2l-43.3-75c-8.7-15.1-28-20.2-43.2-11.4l-64.3 37.1c-15-13.1-32.1-23.8-50.6-31.4V24c0-17.1-13.9-31-31-31h-86c-17.1 0-31 13.9-31 31v74.8c-18.5 7.6-35.6 18.3-50.6 31.4L56.7 93.1c-15.1-8.7-34.5-3.6-43.2 11.4l-43.3 75c-8.7 15.1-3.6 34.5 11.4 43.2l64.3 37.1c-1.5 9.3-2.3 18.9-2.3 28.6s.8 19.3 2.3 28.6L-18.4 315.7c-15.1 8.7-20.2 28-11.4 43.2l43.3 75c8.7 15.1 28 20.2 43.2 11.4l64.3-37.1c15 13.1 32.1 23.8 50.6 31.4V488c0 17.1 13.9 31 31 31h86c17.1 0 31-13.9 31-31v-74.8c18.5-7.6 35.6-18.3 50.6-31.4l64.3 37.1c15.1 8.7 34.5 3.6 43.2-11.4l43.3-75c8.8-15.2 3.7-34.5-11.4-43.2zM256 336c-44.1 0-80-35.9-80-80s35.9-80 80-80 80 35.9 80 80-35.9 80-80 80z"/>
</svg>
