<?xml version="1.0" encoding="UTF-8"?>
<svg xmlns="http://www.w3.org/2000/svg" viewBox="0 0 37.72 37.72">
  <path fill="#ffffff" d="M31.81,16.56l-4.49,5.13-4.49-5.13c-.41-.47-.37-1.19.1-1.6.47-.41,1.19-.36,1.6.11l1.62,1.85c-.89-4.16-4.6-7.29-9.03-7.29-5.09,0-9.23,4.14-9.23,9.23s4.14,9.23,9.23,9.23c.63,0,1.13.51,1.13,1.13s-.51,1.13-1.13,1.13c-6.34,0-11.5-5.16-11.5-11.5s5.16-11.5,11.5-11.5c5.69,0,10.43,4.15,11.34,9.58l1.64-1.87c.41-.47,1.13-.52,1.6-.11.47.41.52,1.13.11,1.6"/>
  <path fill="#ffffff" d="M20.94,19.04l-7.35,6.37c-.26.22-.59.07-.5-.23l1.95-6.33c.06-.18-.05-.34-.23-.34h-1.79c-.28,0-.34-.33-.1-.53l7.35-6.37c.26-.22.59-.07.5.23l-1.95,6.33c-.06.18.05.34.23.34h1.78c.28,0,.34.33.1.53"/>
</svg>
