<?xml version="1.0" encoding="UTF-8"?>
<svg xmlns="http://www.w3.org/2000/svg" viewBox="0 0 37.72 37.72">
  <path fill="#ffffff" d="M21.08,20.72c.7.24,1.42.25,2.19.2-.15-.41-.18-.79-.4-1.15-.52.49-1.13.76-1.79.94M9.94,13.64c.44,1.45.86,2.87,1.3,4.36.75-.87,1.62-1.44,2.56-1.95-.47-1.49-.92-2.93-1.39-4.42-.96.55-1.73,1.23-2.47,2.01M15,19.92c1.31-.61,2.63-.99,4-1.25-.43-1.33-.77-2.62-1.21-3.89-1.42.24-2.73.63-3.99,1.27.4,1.29.8,2.56,1.2,3.87M16.45,10.41c-.36-1.21-.71-2.42-1.08-3.66-1.48.17-2.8.62-4.04,1.38.36,1.17.72,2.31,1.09,3.48.18-.09.32-.16.45-.23,1.13-.57,2.34-.86,3.6-.99.46,1.46.91,2.91,1.39,4.42,1.2-.2,2.37-.12,3.56.15,0-.12,0-.18-.02-.24-.4-1.36-.81-2.72-1.21-4.09-.05-.17-.16-.23-.33-.26-1.06-.2-2.12-.18-3.19-.07-.07,0-.14.06-.21.09M26.34,16.46c.36,1.11.64,2.24,1.03,3.35.9-.48,1.64-1.08,2.31-1.78.21-.22.25-.43.16-.71-.26-.83-.49-1.66-.73-2.49-.02-.08-.07-.15-.11-.25-.22.21-.41.39-.61.57-.61.56-1.33.95-2.06,1.32-.4-1.34-.8-2.68-1.21-4.03.94-.3,1.77-.79,2.52-1.44.21-.18.23-.36.15-.62-.22-.71-.42-1.42-.63-2.13-.1-.33-.21-.67-.33-1.05-.82.75-1.73,1.25-2.73,1.62.03.11.04.18.06.25.33,1.13.65,2.25.98,3.38-.1.03-.21.05-.31.08-.63.21-1.27.38-1.94.4-.37,0-.73,0-1.1,0,.08.63,1.1,3.96,1.31,4.25,1.13,0,2.21-.31,3.25-.74M8.66,9.24c.28-.27.52-.5.77-.73,1.48-1.36,3.2-2.2,5.19-2.5,1.26-.19,2.5-.2,3.75,0,.23.04.46.08.69.1.47.04.72.31.84.74.12.42.25.83.37,1.25.03.1.07.2.13.34.51,0,1.02.04,1.53,0,1.32-.12,2.55-.51,3.64-1.28.27-.19.51-.41.76-.61.12-.1.24-.21.37-.28.3-.15.59-.06.75.24.08.15.13.31.18.48.99,3.34,1.98,6.68,2.98,10.02.02.06.02.12.04.18.18.54.06.99-.33,1.41-1.04,1.09-2.25,1.9-3.64,2.45-1.51.59-3.08.85-4.69.73-.57-.04-1.12-.21-1.68-.34-.42-.1-.66-.39-.77-.79-.07-.25-.14-.5-.21-.78.74-.36,1.54-.33,2.36-.54-3-.21-7.51,1.48-9.04,3.42.47,1.59.95,3.19,1.42,4.79.31,1.05.63,2.11.94,3.16.04.15.1.3.1.45.02.31-.22.62-.51.7-.31.09-.66-.03-.81-.3-.07-.12-.1-.26-.14-.39-1.53-5.13-3.06-10.27-4.59-15.4-.61-2.03-1.21-4.07-1.82-6.1-.05-.16-.1-.33-.11-.5-.04-.38.18-.7.51-.78.37-.09.72.09.87.46.05.12.09.25.15.42"/>
</svg>
